<?xml version="1.0" standalone="no"?><!DOCTYPE svg PUBLIC "-//W3C//DTD SVG 1.1//EN" "http://www.w3.org/Graphics/SVG/1.1/DTD/svg11.dtd"><svg t="1731138547285" class="icon" viewBox="0 0 1024 1024" version="1.1" xmlns="http://www.w3.org/2000/svg" p-id="11036" xmlns:xlink="http://www.w3.org/1999/xlink" width="200" height="200"><path d="M768 938.66633332H298.667c-141.184 0-256-114.816-256-256a256.981 256.981 0 0 1 196.181-248.96A299.221 299.221 0 0 1 512 256.00033332c151.51 0 277.035 113.408 296.15 259.797A213.632 213.632 0 0 1 981.332 725.33333332c0 117.632-95.701 213.333-213.333 213.333zM309.12 487.63733332a42.667 42.667 0 0 1-33.664 25.941A171.093 171.093 0 0 0 128 682.66633332C128 776.78933332 204.544 853.33333332 298.667 853.33333332H768c70.57 0 128-57.43 128-128s-57.43-128-128-128a42.667 42.667 0 0 1-42.667-42.667C725.333 437.03433332 629.632 341.33333332 512 341.33333332a213.717 213.717 0 0 0-201.216 142.208 58.624 58.624 0 0 1-1.664 4.096z" fill="#2c2c2c" p-id="11037"></path></svg>