<?xml version="1.0" standalone="no"?><!DOCTYPE svg PUBLIC "-//W3C//DTD SVG 1.1//EN" "http://www.w3.org/Graphics/SVG/1.1/DTD/svg11.dtd"><svg t="1731138685906" class="icon" viewBox="0 0 1024 1024" version="1.1" xmlns="http://www.w3.org/2000/svg" p-id="12064" xmlns:xlink="http://www.w3.org/1999/xlink" width="200" height="200"><path d="M963.314361 276.729625 577.357032 83.706447c-24.866341-13.429871-44.959981-19.707854-64.672952-19.707854-19.903306 0-39.420825 6.399757-63.069431 18.302855l-384.258641 191.358259c-76.229149 37.862329-92.602048 86.981027 0 130.046868l0 31.999808 0 87.856977 0 80.725556c-19.123546 11.067057-31.999808 31.731702-31.999808 55.416124 0 35.347043 28.652574 64.00064 63.998593 64.00064 35.348066 0 64.00064-28.653597 64.00064-64.00064 0-23.685445-12.875239-44.349067-31.999808-55.416124L129.355625 435.706383c0-0.032746-0.002047-0.064468-0.002047-0.096191l321.694723 160.367431c18.781762 11.692297 39.494503 20.077268 62.509682 20.077268 19.149129 0 39.893592-5.808286 62.433958-20.349467l387.322419-195.156772C1047.225469 357.570815 1035.969101 313.568648 963.314361 276.729625zM934.549224 343.999728 547.443745 539.048029l-3.01159 1.51654-2.834558 1.828648c-10.656711 6.875594-19.828604 10.216689-28.03859 10.216689-8.157797 0-17.636682-3.432169-28.979008-10.492982l-2.542916-1.584078-2.681062-1.336438L93.661681 346.926384l-0.77055-0.384763-0.780783-0.36225c-5.577019-2.593058-10.18292-4.996804-13.969153-7.15905 4.084015-2.550079 9.16166-5.420453 15.438621-8.538467l0.029676-0.01535 0.029676-0.014326 384.258641-191.358259 0.12075-0.060375 0.12075-0.061398c20.532639-10.334369 29.54899-11.529591 34.545794-11.529591l0.002047 0c5.212722 0 14.462387 1.25355 34.522258 12.087293l0.876973 0.473791 0.892323 0.447185 385.792577 192.94029c3.64911 1.854231 6.838755 3.597945 9.622148 5.218862C941.552731 340.278987 938.291454 342.080006 934.549224 343.999728z" p-id="12065" fill="#2c2c2c"></path><path d="M804.7019 615.734596l0 21.735024L804.7019 787.795347c0 8.070816-4.010337 17.002232-11.919471 26.547633-11.290137 13.623275-29.375028 27.010167-52.29811 38.709627-25.728988 13.131065-57.468876 23.989367-91.789543 31.399127-37.204343 8.03193-76.886111 12.103666-117.942179 12.103666-41.055045 0-80.736812-4.071735-117.941156-12.103666-34.320667-7.408737-66.061578-18.267039-91.790566-31.399127-22.922059-11.700483-41.005926-25.086351-52.297087-38.709627-7.909134-9.5454-11.919471-18.47784-11.919471-26.547633L256.804319 637.46962l0-21.735024 0-50.561559-63.444984-31.628348 0 82.189907 0 21.735024 0 150.937664 0.01535 0c0.648776 94.823646 151.443178 171.5931 337.378937 171.5931 185.936783 0 336.732208-76.769454 337.37996-171.5931l0.01535 0 0-150.937664 0-21.735024 0-101.204983-63.444984 31.967062L804.703947 615.734596z" p-id="12066" fill="#2c2c2c"></path></svg>