<?xml version="1.0" standalone="no"?><!DOCTYPE svg PUBLIC "-//W3C//DTD SVG 1.1//EN" "http://www.w3.org/Graphics/SVG/1.1/DTD/svg11.dtd"><svg t="1731138939323" class="icon" viewBox="0 0 1024 1024" version="1.1" xmlns="http://www.w3.org/2000/svg" p-id="15543" xmlns:xlink="http://www.w3.org/1999/xlink" width="200" height="200"><path d="M780.974499 62.389956l-165.407214 0L404.585083 62.389956 241.372861 62.389956c-19.705807 0-35.933397 16.158005-35.933397 36.074613l0 143.41841c0 19.881816 13.119809 45.5228 29.29521 57.184397l162.03542 116.759237c5.901407 4.249791 11.416004 6.040576 16.016789 5.690606 2.072195 0.350994 4.214998 0.561795 6.392594 0.561795l179.63424 0c2.879584 0 5.690606-0.350994 8.377808-0.983397 5.040806 1.370207 11.4334-0.280386 18.388812-5.26798l162.03542-116.759237c16.175401-11.661597 29.29521-37.302581 29.29521-57.184397L816.910966 98.464569C816.909943 78.54796 800.680307 62.389956 780.974499 62.389956zM403.58429 362.962615l-129.438001-92.62763c-8.080026-5.796006-14.611789-18.615986-14.611789-28.381397L259.5345 134.11758c0-9.870812 8.148587-17.879206 17.948791-17.879206l126.101 0L403.58429 362.962615zM565.1275 350.000396c0 10.011005-8.113795 18.125823-17.808598 18.125823l-72.28942 0c-9.834996 0-17.807574-8.114818-17.807574-18.125823L457.221908 116.343775l107.905592 0L565.1275 350.000396zM763.061524 242.023172c0 9.800203-6.53381 22.621207-14.576997 28.418236l-129.2272 92.872201L619.257328 116.238374l125.872802 0c9.782807 0 17.931395 8.008394 17.931395 17.879206L763.061524 242.023172z" fill="#2c2c2c" p-id="15544"></path><path d="M511.17368 458.047204c-139.063219 0-251.78142 112.719224-251.78142 251.78142 0 139.063219 112.718201 251.78142 251.78142 251.78142 139.063219 0 251.782444-112.717178 251.782444-251.78142C762.956124 570.767452 650.237923 458.047204 511.17368 458.047204zM511.17368 907.659295c-109.259426 0-197.827601-88.587618-197.827601-197.829647 0-109.275799 88.569198-197.828624 197.827601-197.828624s197.828624 88.552825 197.828624 197.828624C709.002304 819.070654 620.433106 907.659295 511.17368 907.659295z" fill="#2c2c2c" p-id="15545"></path></svg>